<?xml version="1.0" standalone="no"?>
<!DOCTYPE svg PUBLIC "-//W3C//DTD SVG 20010904//EN"
 "http://www.w3.org/TR/2001/REC-SVG-20010904/DTD/svg10.dtd">
<svg version="1.0" xmlns="http://www.w3.org/2000/svg"
 width="343.000000pt" height="318.000000pt" viewBox="0 0 343.000000 318.000000"
 preserveAspectRatio="xMidYMid meet">

<g transform="translate(0.000000,318.000000) scale(0.100000,-0.100000)"
fill="#000000" stroke="none">
<path d="M1031 3029 c-5 -13 -20 -53 -35 -88 -14 -36 -26 -72 -26 -82 0 -34
-19 -29 -52 12 l-33 41 -6 -76 c-6 -63 -13 -86 -39 -129 -55 -86 -63 -107 -62
-164 1 -118 80 -204 195 -211 97 -6 176 37 219 121 17 34 20 54 16 118 -4 67
-10 88 -51 168 -26 50 -61 140 -78 199 -17 59 -33 109 -35 111 -2 2 -8 -7 -13
-20z m106 -421 c20 -71 9 -120 -39 -167 -69 -67 -162 -62 -222 12 -24 31 -30
47 -30 90 -1 45 4 60 42 114 23 34 42 68 43 75 1 19 38 -63 39 -85 0 -31 34
-15 47 23 7 19 12 64 13 100 l0 65 46 -84 c25 -47 52 -111 61 -143z"/>
<path d="M1729 2810 c-94 -11 -151 -39 -189 -92 -83 -113 -149 -293 -157 -429
-8 -118 2 -169 42 -229 l33 -50 -40 -31 c-22 -18 -62 -59 -89 -91 l-48 -58
-34 30 c-19 16 -45 56 -61 92 l-26 64 -117 64 c-65 36 -123 66 -130 68 -10 3
-13 -15 -13 -66 l0 -70 -37 19 c-48 24 -94 33 -137 25 -28 -5 -33 -10 -29 -26
4 -14 0 -20 -11 -20 -12 0 -16 -10 -16 -40 0 -30 -4 -40 -16 -40 -12 0 -1 -28
42 -110 l58 -109 90 -3 89 -3 15 -44 c14 -42 13 -48 -23 -172 l-38 -129 38
-185 38 -185 38 0 c26 0 37 4 34 13 -2 6 -20 88 -40 181 l-36 169 27 91 c15
50 29 95 32 100 13 23 25 -57 42 -294 10 -140 19 -256 19 -258 1 -2 31 -2 68
0 l67 3 55 256 54 256 59 -25 c70 -31 69 -17 33 -277 -14 -99 -25 -188 -25
-197 0 -16 13 -18 140 -18 l140 0 10 25 10 25 558 0 559 0 -13 98 c-58 422
-243 824 -452 984 l-34 25 22 43 c33 64 37 141 12 231 -49 178 -112 290 -187
334 -77 46 -286 72 -426 55z m283 -81 c73 -12 80 -17 97 -69 63 -201 9 -416
-149 -581 l-69 -74 -1 33 c0 17 5 32 11 32 6 0 8 7 5 16 -3 9 3 27 13 40 58
73 82 261 48 374 -20 67 -76 136 -131 161 -62 28 -196 23 -196 -7 0 -8 7 -14
17 -14 14 0 15 -2 1 -17 -24 -28 -48 -80 -48 -104 0 -12 -18 -57 -40 -99 -49
-97 -64 -177 -49 -275 6 -38 16 -78 21 -88 16 -31 -27 -2 -58 39 -60 78 -38
288 50 469 73 150 88 162 216 174 82 8 159 5 262 -10z m-157 -109 c43 -27 65
-75 65 -144 l0 -56 -69 -34 c-38 -20 -78 -47 -89 -61 -19 -24 -23 -25 -62 -15
-22 6 -46 8 -52 4 -7 -4 -8 -3 -4 4 4 6 -4 16 -16 23 -13 6 -25 13 -27 15 -2
2 14 24 35 49 36 44 36 46 16 52 -51 13 -2 146 63 173 38 16 106 11 140 -10z
m105 -264 c0 -34 -129 -141 -148 -122 -24 24 3 62 75 105 37 23 69 41 71 41 1
0 2 -11 2 -24z m-238 -76 c30 -9 44 -23 85 -88 28 -42 53 -83 57 -89 5 -10 -6
-13 -43 -13 l-50 0 -28 80 c-19 55 -32 79 -41 75 -8 -3 -24 -5 -37 -5 -20 0
-24 -6 -29 -47 -13 -97 -16 -103 -42 -103 -13 0 -24 2 -24 5 0 12 63 171 73
183 12 15 30 15 79 2z m-26 -86 c16 -4 26 -22 39 -65 l18 -59 54 0 53 0 0
-131 0 -131 -82 -169 c-71 -147 -83 -167 -91 -147 -5 13 -40 109 -78 214 l-68
192 28 83 c22 67 32 85 49 87 17 3 22 13 28 60 9 77 9 77 50 66z m-550 -323
l41 -96 -8 -100 c-8 -97 -43 -286 -58 -313 -4 -7 -35 80 -71 203 l-64 215 -96
0 -96 0 -22 48 -22 47 31 -37 c24 -30 38 -38 64 -38 29 0 37 6 64 51 l32 50
31 -27 c19 -15 34 -22 36 -15 2 6 -6 20 -19 30 l-22 18 21 21 c27 27 27 37 2
69 -34 44 -22 46 48 7 l67 -37 41 -96z m-310 47 c10 -20 22 -28 40 -28 14 0
22 -4 19 -10 -3 -5 -19 -10 -34 -10 -23 0 -32 8 -54 49 -15 27 -27 52 -27 56
0 14 41 -29 56 -57z m25 28 c11 -14 29 -27 42 -29 19 -4 18 -4 -5 -6 -19 -1
-33 7 -48 29 -25 36 -16 41 11 6z m665 -12 c-11 -33 -9 -45 16 -116 l28 -80
-42 25 c-60 35 -120 50 -152 37 -14 -5 -26 -7 -26 -3 0 24 160 173 186 173 2
0 -3 -16 -10 -36z m-730 -49 c15 -29 24 -35 52 -35 20 0 31 -4 27 -10 -12 -20
-57 -10 -79 17 -25 32 -45 65 -46 77 0 16 26 -13 46 -49z m1564 -84 c0 -87
-16 -135 -66 -190 -77 -86 -194 -131 -341 -131 -76 0 -164 21 -163 39 1 3 49
42 109 86 l108 80 -5 62 -5 63 59 0 c79 0 181 23 240 53 59 30 64 25 64 -62z
m-904 -77 c73 -45 151 -120 177 -170 8 -16 22 -54 32 -84 24 -75 26 -77 41
-41 l13 31 65 -49 c83 -63 172 -113 261 -146 39 -15 72 -28 74 -30 2 -2 -38
-31 -89 -64 l-92 -61 -87 0 -86 0 -85 185 c-47 102 -89 200 -94 218 -7 26 -35
53 -137 131 -71 55 -129 105 -129 111 0 36 42 27 136 -31z"/>
<path d="M1765 2515 c-5 -2 -27 -6 -47 -10 -41 -6 -45 -12 -25 -38 11 -16 15
-16 61 -1 38 13 53 14 67 5 30 -18 32 -13 9 19 -19 27 -38 34 -65 25z"/>
<path d="M1702 2415 c-11 -25 -11 -25 31 -25 41 0 87 21 87 41 0 5 -24 9 -53
9 -48 0 -55 -3 -65 -25z"/>
<path d="M3305 560 c0 -234 1 -329 2 -213 2 117 2 309 0 425 -1 117 -2 22 -2
-212z"/>
<path d="M157 943 c-4 -3 -7 -177 -7 -385 l0 -378 1555 0 1555 0 0 385 0 385
-1548 0 c-852 0 -1552 -3 -1555 -7z m558 -275 c39 -61 72 -115 73 -119 2 -5
-19 -9 -46 -9 -42 0 -52 4 -57 20 -6 18 -15 20 -84 20 -68 0 -80 -3 -92 -21
-12 -17 -23 -20 -61 -17 l-47 3 75 118 76 117 47 0 46 -1 70 -111z m215 22 l0
-89 88 -3 c87 -3 87 -3 90 -30 l3 -28 -140 0 -141 0 0 120 0 120 50 0 50 0 0
-90z m382 4 l55 -86 54 86 54 86 58 0 57 0 0 -120 0 -120 -50 0 -49 0 -3 71
-3 72 -40 -72 c-38 -68 -42 -71 -77 -71 -35 0 -39 3 -80 72 l-43 73 -3 -73 -3
-72 -49 0 -50 0 0 120 0 120 59 0 58 0 55 -86z m608 56 l0 -30 -85 0 c-78 0
-85 -2 -85 -20 0 -18 7 -20 70 -20 63 0 70 -2 70 -20 0 -18 -7 -20 -70 -20
-63 0 -70 -2 -70 -20 0 -19 7 -20 90 -20 l90 0 0 -30 0 -30 -140 0 -140 0 0
120 0 120 135 0 135 0 0 -30z m305 19 c75 -20 105 -73 85 -148 -16 -61 -52
-75 -207 -79 l-133 -4 0 114 c0 63 3 118 7 121 11 11 205 8 248 -4z m405 -19
l0 -30 -85 0 c-78 0 -85 -2 -85 -20 0 -18 7 -20 70 -20 63 0 70 -2 70 -20 0
-18 -7 -20 -70 -20 -63 0 -70 -2 -70 -20 0 -19 7 -20 90 -20 l90 0 0 -30 0
-30 -140 0 -140 0 0 120 0 120 135 0 135 0 0 -30z m172 -56 l42 -87 39 87 40
86 48 0 c27 0 49 -2 49 -4 0 -2 -30 -56 -66 -120 l-65 -116 -47 0 -47 1 -62
113 c-35 62 -63 116 -63 120 0 3 20 6 45 6 l46 0 41 -86z m-2147 -309 c0 -39
-1 -40 -37 -43 l-38 -3 0 46 0 46 38 -3 c36 -3 37 -4 37 -43z m95 35 c0 -5 -9
-10 -20 -10 -28 0 -25 -20 3 -21 l22 -2 -22 -4 c-28 -5 -30 -23 -4 -23 11 0
23 -4 26 -10 4 -6 -10 -10 -34 -10 l-41 0 0 45 c0 45 0 45 35 45 19 0 35 -4
35 -10z m90 0 c0 -5 -10 -10 -22 -10 -22 -1 -21 -2 5 -16 30 -16 30 -16 21
-38 -4 -10 -18 -16 -41 -16 -21 0 -32 4 -28 10 4 6 14 9 22 8 9 -2 18 3 20 10
3 7 -4 12 -16 12 -23 0 -35 15 -27 35 6 17 66 21 66 5z m93 -35 c14 -39 14
-45 1 -45 -8 0 -14 5 -14 10 0 6 -9 10 -20 10 -11 0 -20 -4 -20 -10 0 -5 -5
-10 -11 -10 -10 0 -7 16 12 68 14 35 36 26 52 -23z m103 -2 c1 -48 -1 -50 -28
-26 -17 15 -18 15 -18 0 0 -10 -4 -17 -10 -17 -5 0 -10 21 -10 46 0 45 0 45
33 42 30 -3 32 -5 33 -45z m100 0 c1 -48 -1 -50 -28 -26 -17 15 -18 15 -18 0
0 -10 -4 -17 -10 -17 -5 0 -10 21 -10 46 0 45 0 45 33 42 30 -3 32 -5 33 -45z
m109 2 c0 -36 -3 -40 -28 -43 -34 -4 -57 13 -57 42 0 31 20 47 55 44 28 -3 30
-6 30 -43z m55 10 c0 -28 4 -35 20 -35 11 0 20 -4 20 -10 0 -5 -16 -10 -35
-10 -35 0 -35 0 -35 45 0 33 4 45 15 45 10 0 15 -11 15 -35z m80 0 c0 -28 4
-35 19 -35 11 0 23 -4 26 -10 4 -6 -8 -10 -29 -10 -36 0 -36 0 -36 45 0 25 5
45 10 45 6 0 10 -16 10 -35z m90 0 c0 -28 4 -35 19 -35 11 0 23 -4 26 -10 4
-6 -8 -10 -29 -10 -36 0 -36 0 -36 45 0 25 5 45 10 45 6 0 10 -16 10 -35z
m131 -10 c14 -37 14 -45 3 -45 -8 0 -14 5 -14 10 0 6 -9 10 -20 10 -11 0 -20
-4 -20 -10 0 -5 -4 -10 -10 -10 -14 0 -13 15 4 55 20 47 38 44 57 -10z m112
24 c5 -9 7 -28 3 -42 -6 -24 -11 -27 -46 -27 l-40 0 0 46 0 45 36 -3 c21 -2
41 -10 47 -19z m102 -24 c0 -39 -1 -40 -35 -40 -31 0 -35 3 -38 28 -5 46 4 59
40 55 31 -3 33 -5 33 -43z m101 -2 c1 -48 -1 -50 -28 -26 -17 15 -18 15 -18 0
0 -10 -4 -17 -10 -17 -5 0 -10 21 -10 46 0 45 0 45 33 42 30 -3 32 -5 33 -45z
m139 37 c-3 -5 -15 -10 -26 -10 -27 0 -24 -20 4 -21 l22 -2 -22 -4 c-15 -3
-23 -12 -23 -24 0 -10 -4 -19 -10 -19 -5 0 -10 20 -10 45 0 45 0 45 36 45 21
0 33 -4 29 -10z m47 -27 c4 -49 22 -49 26 0 4 44 25 46 30 3 4 -36 -15 -58
-47 -54 -23 3 -26 8 -29 46 -2 23 1 42 7 42 5 0 11 -17 13 -37z m98 2 c0 -28
4 -35 19 -35 11 0 23 -4 26 -10 4 -6 -8 -10 -29 -10 -36 0 -36 0 -36 45 0 25
5 45 10 45 6 0 10 -16 10 -35z m90 0 c0 -28 4 -35 19 -35 11 0 23 -4 26 -10 4
-6 -8 -10 -29 -10 -36 0 -36 0 -36 45 0 25 5 45 10 45 6 0 10 -16 10 -35z
m170 25 c0 -5 -12 -10 -27 -11 l-28 -1 28 -11 c40 -16 34 -51 -10 -55 -20 -2
-33 1 -33 8 0 6 10 10 22 8 11 -2 23 3 25 10 3 7 -4 12 -16 12 -23 0 -35 15
-27 35 6 17 66 21 66 5z m88 -4 c-11 -8 -18 -26 -18 -45 0 -17 -4 -31 -10 -31
-5 0 -10 16 -10 35 0 24 -5 35 -15 35 -8 0 -15 5 -15 10 0 6 19 10 43 10 37
-1 40 -2 25 -14z m93 -31 c14 -37 14 -45 3 -45 -8 0 -14 5 -14 10 0 6 -9 10
-20 10 -11 0 -20 -4 -20 -10 0 -5 -4 -10 -10 -10 -14 0 -13 15 4 55 20 47 38
44 57 -10z m99 35 c0 -5 -9 -10 -21 -10 -16 0 -20 -5 -17 -27 2 -20 8 -27 21
-25 9 2 17 -2 17 -8 0 -7 -14 -10 -32 -8 -28 3 -34 7 -36 31 -2 16 -1 35 2 43
6 16 66 20 66 4z m50 -7 c0 -15 1 -15 18 0 27 24 37 21 19 -7 -14 -21 -14 -25
6 -45 18 -18 19 -21 5 -21 -9 0 -24 10 -32 22 l-16 22 0 -22 c0 -13 -6 -22
-15 -22 -11 0 -15 12 -15 45 0 33 4 45 15 45 8 0 15 -7 15 -17z"/>
<path d="M579 683 c-7 -16 -15 -31 -17 -35 -2 -5 15 -8 37 -8 l40 0 -20 35
c-12 19 -22 35 -23 35 -2 0 -9 -12 -17 -27z"/>
<path d="M2070 660 l0 -60 51 0 c69 0 89 12 89 55 0 44 -29 65 -92 65 l-48 0
0 -60z"/>
<path d="M600 385 c0 -18 5 -25 20 -25 15 0 20 7 20 25 0 18 -5 25 -20 25 -15
0 -20 -7 -20 -25z"/>
<path d="M895 390 c-3 -5 -1 -10 4 -10 6 0 11 5 11 10 0 6 -2 10 -4 10 -3 0
-8 -4 -11 -10z"/>
<path d="M990 400 c0 -5 7 -10 15 -10 8 0 15 5 15 10 0 6 -7 10 -15 10 -8 0
-15 -4 -15 -10z"/>
<path d="M1090 400 c0 -5 7 -10 15 -10 8 0 15 5 15 10 0 6 -7 10 -15 10 -8 0
-15 -4 -15 -10z"/>
<path d="M1190 387 c0 -13 3 -26 6 -30 12 -12 34 6 34 29 0 17 -6 24 -20 24
-14 0 -20 -7 -20 -23z"/>
<path d="M1565 390 c-3 -5 -1 -10 4 -10 6 0 11 5 11 10 0 6 -2 10 -4 10 -3 0
-8 -4 -11 -10z"/>
<path d="M1660 385 c0 -16 6 -25 15 -25 9 0 15 9 15 25 0 16 -6 25 -15 25 -9
0 -15 -9 -15 -25z"/>
<path d="M1760 385 c0 -18 5 -25 20 -25 15 0 20 7 20 25 0 18 -5 25 -20 25
-15 0 -20 -7 -20 -25z"/>
<path d="M1870 400 c0 -5 7 -10 15 -10 8 0 15 5 15 10 0 6 -7 10 -15 10 -8 0
-15 -4 -15 -10z"/>
<path d="M2605 390 c-3 -5 -1 -10 4 -10 6 0 11 5 11 10 0 6 -2 10 -4 10 -3 0
-8 -4 -11 -10z"/>
</g>
</svg>
